<?xml version="1.0" encoding="UTF-8"?>
<svg width="447px" height="639px" viewBox="0 0 447 639" version="1.1" xmlns="http://www.w3.org/2000/svg" xmlns:xlink="http://www.w3.org/1999/xlink">
    <!-- Generator: Sketch 51.3 (57544) - http://www.bohemiancoding.com/sketch -->
    <title>Image Placeholder</title>
    <desc>Created with Sketch.</desc>
    <defs>
        <rect id="path-1" x="0" y="0" width="447" height="639"></rect>
    </defs>
    <g id="Image-Placeholder" stroke="none" stroke-width="1" fill="none" fill-rule="evenodd">
        <g id="Placeholder">
            <mask id="mask-2" fill="white">
                <use xlink:href="#path-1"></use>
            </mask>
            <use id="Rectangle-7" fill="#F8F8FB" xlink:href="#path-1"></use>
            <g id="placeholder_icon" mask="url(#mask-2)">
                <g transform="translate(92.000000, 158.000000)">
                    <path d="M5.763,243.478 C5.22166396,242.936664 4.951,242.202005 4.951,241.274 L4.951,205.836 C4.951,204.946662 5.22166396,204.221669 5.763,203.661 C6.30433604,203.100331 7.01966222,202.82 7.909,202.82 C8.83700464,202.82 9.57166396,203.090664 10.113,203.632 C10.654336,204.173336 10.925,204.907995 10.925,205.836 L10.925,241.274 C10.925,242.202005 10.6640026,242.936664 10.142,243.478 C9.61999739,244.019336 8.8756715,244.29 7.909,244.29 C7.01966222,244.29 6.30433604,244.019336 5.763,243.478 Z M61.733,226.426 L61.733,241.506 C61.733,242.395338 61.462336,243.081664 60.921,243.565 C60.379664,244.048336 59.6643378,244.29 58.775,244.29 C57.9243291,244.29 57.228336,244.048336 56.687,243.565 C56.145664,243.081664 55.875,242.395338 55.875,241.506 L55.875,226.484 C55.875,224.125322 55.4496709,222.414339 54.599,221.351 C53.7483291,220.287661 52.4143424,219.756 50.597,219.756 C48.4703227,219.756 46.7883395,220.480993 45.551,221.931 C44.3136605,223.381007 43.695,225.362654 43.695,227.876 L43.695,241.506 C43.695,242.395338 43.424336,243.081664 42.883,243.565 C42.341664,244.048336 41.6263378,244.29 40.737,244.29 C39.8863291,244.29 39.190336,244.048336 38.649,243.565 C38.107664,243.081664 37.837,242.395338 37.837,241.506 L37.837,226.484 C37.837,224.125322 37.4116709,222.414339 36.561,221.351 C35.7103291,220.287661 34.3763424,219.756 32.559,219.756 C30.4323227,219.756 28.7406729,220.480993 27.484,221.931 C26.227327,223.381007 25.599,225.362654 25.599,227.876 L25.599,241.506 C25.599,242.395338 25.328336,243.081664 24.787,243.565 C24.245664,244.048336 23.5496709,244.29 22.699,244.29 C21.8483291,244.29 21.1426695,244.048336 20.582,243.565 C20.0213305,243.081664 19.741,242.395338 19.741,241.506 L19.741,217.9 C19.741,217.049329 20.0309971,216.372669 20.611,215.87 C21.1910029,215.367331 21.8869959,215.116 22.699,215.116 C23.5110041,215.116 24.1779974,215.357664 24.7,215.841 C25.2220026,216.324336 25.483,216.991329 25.483,217.842 L25.483,219.988 C26.3336709,218.363992 27.5129925,217.126671 29.021,216.276 C30.5290075,215.425329 32.2689901,215 34.241,215 C36.4063442,215 38.1946596,215.444662 39.606,216.334 C41.0173404,217.223338 42.0709965,218.595991 42.767,220.452 C43.6176709,218.789325 44.874325,217.465005 46.537,216.479 C48.199675,215.492995 50.0943227,215 52.221,215 C58.562365,215 61.733,218.808629 61.733,226.426 Z M90.008,217.842 C91.8446758,219.736676 92.763,222.617314 92.763,226.484 L92.763,241.506 C92.763,242.395338 92.5116692,243.081664 92.009,243.565 C91.5063308,244.048336 90.8103378,244.29 89.921,244.29 C89.0703291,244.29 88.3936692,244.038669 87.891,243.536 C87.3883308,243.033331 87.137,242.356671 87.137,241.506 L87.137,239.36 C86.4023297,240.984008 85.3100072,242.230996 83.86,243.101 C82.4099927,243.971004 80.718343,244.406 78.785,244.406 C76.9289907,244.406 75.2276744,244.029004 73.681,243.275 C72.1343256,242.520996 70.9260043,241.46734 70.056,240.114 C69.1859956,238.76066 68.751,237.252675 68.751,235.59 C68.751,233.540656 69.2826613,231.926339 70.346,230.747 C71.4093386,229.567661 73.1686544,228.726669 75.624,228.224 C78.0793456,227.721331 81.4529785,227.47 85.745,227.47 L87.079,227.47 L87.079,225.788 C87.079,223.622656 86.6343378,222.056671 85.745,221.09 C84.8556622,220.123329 83.4250099,219.64 81.453,219.64 C80.0996599,219.64 78.8236727,219.813998 77.625,220.162 C76.4263273,220.510002 75.1116738,221.012663 73.681,221.67 C72.6369948,222.250003 71.9023355,222.54 71.477,222.54 C70.8969971,222.54 70.4233352,222.327335 70.056,221.902 C69.6886648,221.476665 69.505,220.935337 69.505,220.278 C69.505,219.697997 69.6693317,219.185669 69.998,218.741 C70.3266683,218.296331 70.8583297,217.861335 71.593,217.436 C72.9463401,216.70133 74.5316576,216.111669 76.349,215.667 C78.1663424,215.222331 79.9256582,215 81.627,215 C85.3776854,215 88.1713241,215.947324 90.008,217.842 Z M85.049,237.881 C86.4023401,236.430993 87.079,234.565345 87.079,232.284 L87.079,230.776 L86.035,230.776 C83.0189849,230.776 80.6990081,230.911332 79.075,231.182 C77.4509919,231.452668 76.2910035,231.906997 75.595,232.545 C74.8989965,233.183003 74.551,234.101327 74.551,235.3 C74.551,236.692007 75.0536616,237.832662 76.059,238.722 C77.0643384,239.611338 78.3209925,240.056 79.829,240.056 C81.9556773,240.056 83.6956599,239.331007 85.049,237.881 Z M126.316,215.899 C126.838003,216.421003 127.099,217.107329 127.099,217.958 L127.099,241.738 C127.099,246.068688 125.948678,249.335989 123.648,251.54 C121.347322,253.744011 117.954356,254.846 113.469,254.846 C109.292979,254.846 105.813014,254.053341 103.029,252.468 C101.598326,251.655996 100.883,250.689339 100.883,249.568 C100.883,248.910663 101.066665,248.369335 101.434,247.944 C101.801335,247.518665 102.255664,247.306 102.797,247.306 C103.299669,247.306 104.092328,247.595997 105.175,248.176 C106.567007,248.833337 107.862327,249.345665 109.061,249.713 C110.259673,250.080335 111.690325,250.264 113.353,250.264 C118.689027,250.264 121.357,247.576694 121.357,242.202 L121.357,237.736 C120.544996,239.437342 119.307675,240.761662 117.645,241.709 C115.982325,242.656338 114.049011,243.13 111.845,243.13 C109.370321,243.13 107.166343,242.550006 105.233,241.39 C103.299657,240.229994 101.801339,238.586677 100.738,236.46 C99.6746614,234.333323 99.143,231.878014 99.143,229.094 C99.143,226.309986 99.6843279,223.854677 100.767,221.728 C101.849672,219.601323 103.34799,217.948339 105.262,216.769 C107.17601,215.589661 109.370321,215 111.845,215 C114.010344,215 115.914658,215.463995 117.558,216.392 C119.201342,217.320005 120.448329,218.634658 121.299,220.336 L121.299,217.9 C121.299,217.049329 121.559997,216.372669 122.082,215.87 C122.604003,215.367331 123.309662,215.116 124.199,215.116 C125.088338,215.116 125.793997,215.376997 126.316,215.899 Z M119.153,235.996 C120.583674,234.333325 121.299,232.032681 121.299,229.094 C121.299,226.193985 120.59334,223.903008 119.182,222.221 C117.77066,220.538992 115.789013,219.698 113.237,219.698 C110.684987,219.698 108.684007,220.529325 107.234,222.192 C105.783993,223.854675 105.059,226.155319 105.059,229.094 C105.059,232.032681 105.793659,234.333325 107.263,235.996 C108.732341,237.658675 110.723654,238.49 113.237,238.49 C115.750346,238.49 117.722326,237.658675 119.153,235.996 Z M158.767,237.504 C159.115002,237.929335 159.289,238.470663 159.289,239.128 C159.289,240.249339 158.593007,241.196663 157.201,241.97 C155.84766,242.743337 154.368675,243.342665 152.764,243.768 C151.159325,244.193335 149.622341,244.406 148.153,244.406 C143.667644,244.406 140.12968,243.101013 137.539,240.491 C134.94832,237.880987 133.653,234.314023 133.653,229.79 C133.653,226.889985 134.223328,224.318678 135.364,222.076 C136.504672,219.833322 138.109323,218.09334 140.178,216.856 C142.246677,215.61866 144.595654,215 147.225,215 C151.014352,215 154.010989,216.217988 156.215,218.654 C158.419011,221.090012 159.521,224.376646 159.521,228.514 C159.521,230.060674 158.825007,230.834 157.433,230.834 L139.511,230.834 C139.897669,236.827363 142.778306,239.824 148.153,239.824 C149.583674,239.824 150.820995,239.630669 151.865,239.244 C152.909005,238.857331 154.010994,238.35467 155.171,237.736 C155.287001,237.658666 155.605997,237.494335 156.128,237.243 C156.650003,236.991665 157.084998,236.866 157.433,236.866 C157.974336,236.866 158.418998,237.078665 158.767,237.504 Z M141.947,221.438 C140.59366,222.868674 139.781668,224.87932 139.511,227.47 L154.475,227.47 C154.358999,224.840654 153.692006,222.82034 152.474,221.409 C151.255994,219.99766 149.545011,219.292 147.341,219.292 C145.098322,219.292 143.30034,220.007326 141.947,221.438 Z M206.675,226.426 L206.675,241.506 C206.675,242.395338 206.414003,243.081664 205.892,243.565 C205.369997,244.048336 204.645005,244.29 203.717,244.29 C202.827662,244.29 202.122003,244.038669 201.6,243.536 C201.077997,243.033331 200.817,242.356671 200.817,241.506 L200.817,226.716 C200.817,224.318655 200.343338,222.559339 199.396,221.438 C198.448662,220.316661 196.969677,219.756 194.959,219.756 C192.600322,219.756 190.705674,220.490659 189.275,221.96 C187.844326,223.429341 187.129,225.401321 187.129,227.876 L187.129,241.506 C187.129,242.356671 186.868003,243.033331 186.346,243.536 C185.823997,244.038669 185.118338,244.29 184.229,244.29 C183.339662,244.29 182.624336,244.038669 182.083,243.536 C181.541664,243.033331 181.271,242.356671 181.271,241.506 L181.271,217.9 C181.271,217.087996 181.551331,216.421003 182.112,215.899 C182.672669,215.376997 183.378329,215.116 184.229,215.116 C185.079671,215.116 185.756331,215.367331 186.259,215.87 C186.761669,216.372669 187.013,217.029996 187.013,217.842 L187.013,220.22 C187.941005,218.518658 189.236325,217.223338 190.899,216.334 C192.561675,215.444662 194.43699,215 196.525,215 C203.2917,215 206.675,218.808629 206.675,226.426 Z M219.638,242.608 C217.530656,241.409327 215.906672,239.698344 214.766,237.475 C213.625328,235.251656 213.055,232.670681 213.055,229.732 C213.055,226.754652 213.625328,224.154344 214.766,221.931 C215.906672,219.707656 217.530656,217.996673 219.638,216.798 C221.745344,215.599327 224.190986,215 226.975,215 C229.759014,215 232.204656,215.599327 234.312,216.798 C236.419344,217.996673 238.043328,219.707656 239.184,221.931 C240.324672,224.154344 240.895,226.754652 240.895,229.732 C240.895,232.670681 240.324672,235.251656 239.184,237.475 C238.043328,239.698344 236.419344,241.409327 234.312,242.608 C232.204656,243.806673 229.759014,244.406 226.975,244.406 C224.190986,244.406 221.745344,243.806673 219.638,242.608 Z M232.92,237.214 C234.292674,235.512658 234.979,233.018683 234.979,229.732 C234.979,226.483984 234.283007,223.999675 232.891,222.279 C231.498993,220.558325 229.527013,219.698 226.975,219.698 C224.422987,219.698 222.451007,220.558325 221.059,222.279 C219.666993,223.999675 218.971,226.483984 218.971,229.732 C218.971,233.018683 219.657326,235.512658 221.03,237.214 C222.402674,238.915342 224.38432,239.766 226.975,239.766 C229.56568,239.766 231.547326,238.915342 232.92,237.214 Z M263.08,240.491 C263.447335,240.858335 263.631,241.370663 263.631,242.028 C263.631,242.801337 263.331336,243.390998 262.732,243.797 C262.132664,244.203002 261.253006,244.367334 260.093,244.29 L258.527,244.174 C255.394984,243.941999 253.055674,242.985008 251.509,241.303 C249.962326,239.620992 249.189,237.136683 249.189,233.85 L249.189,220.22 L245.709,220.22 C244.007658,220.22 243.157,219.466008 243.157,217.958 C243.157,217.261997 243.379331,216.711002 243.824,216.305 C244.268669,215.898998 244.896996,215.696 245.709,215.696 L249.189,215.696 L249.189,209.722 C249.189,208.832662 249.449997,208.136669 249.972,207.634 C250.494003,207.131331 251.199662,206.88 252.089,206.88 C252.978338,206.88 253.693664,207.131331 254.235,207.634 C254.776336,208.136669 255.047,208.832662 255.047,209.722 L255.047,215.696 L260.789,215.696 C261.601004,215.696 262.229331,215.898998 262.674,216.305 C263.118669,216.711002 263.341,217.261997 263.341,217.958 C263.341,218.69267 263.118669,219.253331 262.674,219.64 C262.229331,220.026669 261.601004,220.22 260.789,220.22 L255.047,220.22 L255.047,234.256 C255.047,236.073342 255.423996,237.407329 256.178,238.258 C256.932004,239.108671 258.082326,239.591999 259.629,239.708 L261.253,239.824 C262.103671,239.901334 262.712665,240.123665 263.08,240.491 Z M52.192,307.68 C52.192,308.41467 51.8923363,309.033331 51.293,309.536 C50.6936637,310.038669 50.0266703,310.29 49.292,310.29 C48.7893308,310.29 48.3156689,310.145001 47.871,309.855 C47.4263311,309.564999 47.0880012,309.149336 46.856,308.608 L43.028,299.908 L21.8,299.908 L17.972,308.608 C17.7399988,309.149336 17.3920023,309.564999 16.928,309.855 C16.4639977,310.145001 15.9806692,310.29 15.478,310.29 C14.7046628,310.29 14.0183363,310.038669 13.419,309.536 C12.8196637,309.033331 12.52,308.41467 12.52,307.68 C12.52,307.370665 12.6166657,306.984002 12.81,306.52 L29.166,270.734 C29.436668,270.11533 29.8716637,269.632002 30.471,269.284 C31.0703363,268.935998 31.6986634,268.762 32.356,268.762 C33.0133366,268.762 33.6416637,268.935998 34.241,269.284 C34.8403363,269.632002 35.275332,270.11533 35.546,270.734 L51.902,306.52 C52.0953343,306.984002 52.192,307.370665 52.192,307.68 Z M23.946,295.152 L40.94,295.152 L32.414,275.954 L23.946,295.152 Z M78.843,281.58 C79.2876689,281.309332 79.7613308,281.174 80.264,281.174 C80.9986703,281.174 81.6463305,281.425331 82.207,281.928 C82.7676695,282.430669 83.048,283.029997 83.048,283.726 C83.048,284.112669 82.9706674,284.479998 82.816,284.828 L71.738,308.318 C71.467332,308.93667 71.0516695,309.410332 70.491,309.739 C69.9303305,310.067668 69.3406698,310.232 68.722,310.232 C68.1033302,310.232 67.5136695,310.067668 66.953,309.739 C66.3923305,309.410332 65.976668,308.93667 65.706,308.318 L54.628,284.828 C54.4733326,284.518665 54.396,284.151335 54.396,283.726 C54.396,283.029997 54.7053302,282.430669 55.324,281.928 C55.9426698,281.425331 56.6386628,281.174 57.412,281.174 C58.5333389,281.174 59.364664,281.715328 59.906,282.798 L68.896,302.75 L77.828,282.856 C78.0600012,282.275997 78.3983311,281.850668 78.843,281.58 Z M108.133,283.842 C109.969676,285.736676 110.888,288.617314 110.888,292.484 L110.888,307.506 C110.888,308.395338 110.636669,309.081664 110.134,309.565 C109.631331,310.048336 108.935338,310.29 108.046,310.29 C107.195329,310.29 106.518669,310.038669 106.016,309.536 C105.513331,309.033331 105.262,308.356671 105.262,307.506 L105.262,305.36 C104.52733,306.984008 103.435007,308.230996 101.985,309.101 C100.534993,309.971004 98.843343,310.406 96.91,310.406 C95.0539907,310.406 93.3526744,310.029004 91.806,309.275 C90.2593256,308.520996 89.0510043,307.46734 88.181,306.114 C87.3109956,304.76066 86.876,303.252675 86.876,301.59 C86.876,299.540656 87.4076613,297.926339 88.471,296.747 C89.5343386,295.567661 91.2936544,294.726669 93.749,294.224 C96.2043456,293.721331 99.5779785,293.47 103.87,293.47 L105.204,293.47 L105.204,291.788 C105.204,289.622656 104.759338,288.056671 103.87,287.09 C102.980662,286.123329 101.55001,285.64 99.578,285.64 C98.2246599,285.64 96.9486727,285.813998 95.75,286.162 C94.5513273,286.510002 93.2366738,287.012663 91.806,287.67 C90.7619948,288.250003 90.0273355,288.54 89.602,288.54 C89.0219971,288.54 88.5483352,288.327335 88.181,287.902 C87.8136648,287.476665 87.63,286.935337 87.63,286.278 C87.63,285.697997 87.7943317,285.185669 88.123,284.741 C88.4516683,284.296331 88.9833297,283.861335 89.718,283.436 C91.0713401,282.70133 92.6566576,282.111669 94.474,281.667 C96.2913424,281.222331 98.0506582,281 99.752,281 C103.502685,281 106.296324,281.947324 108.133,283.842 Z M103.174,303.881 C104.52734,302.430993 105.204,300.565345 105.204,298.284 L105.204,296.776 L104.16,296.776 C101.143985,296.776 98.8240081,296.911332 97.2,297.182 C95.5759919,297.452668 94.4160035,297.906997 93.72,298.545 C93.0239965,299.183003 92.676,300.101327 92.676,301.3 C92.676,302.692007 93.1786616,303.832662 94.184,304.722 C95.1893384,305.611338 96.4459925,306.056 97.954,306.056 C100.080677,306.056 101.82066,305.331007 103.174,303.881 Z M119.733,309.594 C119.172331,309.129998 118.892,308.434005 118.892,307.506 L118.892,283.958 C118.892,283.029995 119.172331,282.324336 119.733,281.841 C120.293669,281.357664 120.999329,281.116 121.85,281.116 C122.700671,281.116 123.396664,281.357664 123.938,281.841 C124.479336,282.324336 124.75,283.029995 124.75,283.958 L124.75,307.506 C124.75,308.434005 124.479336,309.129998 123.938,309.594 C123.396664,310.058002 122.700671,310.29 121.85,310.29 C120.999329,310.29 120.293669,310.058002 119.733,309.594 Z M119.182,274.504 C118.524663,273.88533 118.196,273.073338 118.196,272.068 C118.196,271.062662 118.524663,270.260336 119.182,269.661 C119.839337,269.061664 120.728661,268.762 121.85,268.762 C122.932672,268.762 123.81233,269.061664 124.489,269.661 C125.16567,270.260336 125.504,271.062662 125.504,272.068 C125.504,273.073338 125.175337,273.88533 124.518,274.504 C123.860663,275.12267 122.971339,275.432 121.85,275.432 C120.728661,275.432 119.839337,275.12267 119.182,274.504 Z M133.769,309.594 C133.208331,309.129998 132.928,308.434005 132.928,307.506 L132.928,271.662 C132.928,270.733995 133.208331,270.028336 133.769,269.545 C134.329669,269.061664 135.035329,268.82 135.886,268.82 C136.736671,268.82 137.432664,269.061664 137.974,269.545 C138.515336,270.028336 138.786,270.733995 138.786,271.662 L138.786,307.506 C138.786,308.434005 138.515336,309.129998 137.974,309.594 C137.432664,310.058002 136.736671,310.29 135.886,310.29 C135.035329,310.29 134.329669,310.058002 133.769,309.594 Z M167.235,283.842 C169.071676,285.736676 169.99,288.617314 169.99,292.484 L169.99,307.506 C169.99,308.395338 169.738669,309.081664 169.236,309.565 C168.733331,310.048336 168.037338,310.29 167.148,310.29 C166.297329,310.29 165.620669,310.038669 165.118,309.536 C164.615331,309.033331 164.364,308.356671 164.364,307.506 L164.364,305.36 C163.62933,306.984008 162.537007,308.230996 161.087,309.101 C159.636993,309.971004 157.945343,310.406 156.012,310.406 C154.155991,310.406 152.454674,310.029004 150.908,309.275 C149.361326,308.520996 148.153004,307.46734 147.283,306.114 C146.412996,304.76066 145.978,303.252675 145.978,301.59 C145.978,299.540656 146.509661,297.926339 147.573,296.747 C148.636339,295.567661 150.395654,294.726669 152.851,294.224 C155.306346,293.721331 158.679979,293.47 162.972,293.47 L164.306,293.47 L164.306,291.788 C164.306,289.622656 163.861338,288.056671 162.972,287.09 C162.082662,286.123329 160.65201,285.64 158.68,285.64 C157.32666,285.64 156.050673,285.813998 154.852,286.162 C153.653327,286.510002 152.338674,287.012663 150.908,287.67 C149.863995,288.250003 149.129335,288.54 148.704,288.54 C148.123997,288.54 147.650335,288.327335 147.283,287.902 C146.915665,287.476665 146.732,286.935337 146.732,286.278 C146.732,285.697997 146.896332,285.185669 147.225,284.741 C147.553668,284.296331 148.08533,283.861335 148.82,283.436 C150.17334,282.70133 151.758658,282.111669 153.576,281.667 C155.393342,281.222331 157.152658,281 158.854,281 C162.604685,281 165.398324,281.947324 167.235,283.842 Z M162.276,303.881 C163.62934,302.430993 164.306,300.565345 164.306,298.284 L164.306,296.776 L163.262,296.776 C160.245985,296.776 157.926008,296.911332 156.302,297.182 C154.677992,297.452668 153.518003,297.906997 152.822,298.545 C152.125997,299.183003 151.778,300.101327 151.778,301.3 C151.778,302.692007 152.280662,303.832662 153.286,304.722 C154.291338,305.611338 155.547992,306.056 157.056,306.056 C159.182677,306.056 160.92266,305.331007 162.276,303.881 Z M199.744,282.798 C201.638676,283.996673 203.117661,285.697989 204.181,287.902 C205.244339,290.106011 205.776,292.677319 205.776,295.616 C205.776,298.516014 205.244339,301.087322 204.181,303.33 C203.117661,305.572678 201.62901,307.31266 199.715,308.55 C197.80099,309.78734 195.626012,310.406 193.19,310.406 C191.063323,310.406 189.188008,309.951671 187.564,309.043 C185.939992,308.134329 184.702671,306.829342 183.852,305.128 L183.852,307.448 C183.852,308.298671 183.591003,308.984997 183.069,309.507 C182.546997,310.029003 181.841338,310.29 180.952,310.29 C180.062662,310.29 179.347336,310.029003 178.806,309.507 C178.264664,308.984997 177.994,308.298671 177.994,307.448 L177.994,271.604 C177.994,270.753329 178.274331,270.076669 178.835,269.574 C179.395669,269.071331 180.120662,268.82 181.01,268.82 C181.860671,268.82 182.546997,269.061664 183.069,269.545 C183.591003,270.028336 183.852,270.675996 183.852,271.488 L183.852,286.336 C184.702671,284.634658 185.939992,283.320005 187.564,282.392 C189.188008,281.463995 191.063323,281 193.19,281 C195.664679,281 197.849324,281.599327 199.744,282.798 Z M197.685,303.098 C199.09634,301.319324 199.802,298.825349 199.802,295.616 C199.802,292.445317 199.106007,289.999675 197.714,288.279 C196.321993,286.558325 194.350013,285.698 191.798,285.698 C189.245987,285.698 187.283674,286.567991 185.911,288.308 C184.538326,290.048009 183.852,292.522651 183.852,295.732 C183.852,298.941349 184.538326,301.415991 185.911,303.156 C187.283674,304.896009 189.245987,305.766 191.798,305.766 C194.311346,305.766 196.27366,304.876676 197.685,303.098 Z M213.113,309.594 C212.552331,309.129998 212.272,308.434005 212.272,307.506 L212.272,271.662 C212.272,270.733995 212.552331,270.028336 213.113,269.545 C213.673669,269.061664 214.379329,268.82 215.23,268.82 C216.080671,268.82 216.776664,269.061664 217.318,269.545 C217.859336,270.028336 218.13,270.733995 218.13,271.662 L218.13,307.506 C218.13,308.434005 217.859336,309.129998 217.318,309.594 C216.776664,310.058002 216.080671,310.29 215.23,310.29 C214.379329,310.29 213.673669,310.058002 213.113,309.594 Z M249.798,303.504 C250.146002,303.929335 250.32,304.470663 250.32,305.128 C250.32,306.249339 249.624007,307.196663 248.232,307.97 C246.87866,308.743337 245.399675,309.342665 243.795,309.768 C242.190325,310.193335 240.653341,310.406 239.184,310.406 C234.698644,310.406 231.16068,309.101013 228.57,306.491 C225.97932,303.880987 224.684,300.314023 224.684,295.79 C224.684,292.889985 225.254328,290.318678 226.395,288.076 C227.535672,285.833322 229.140323,284.09334 231.209,282.856 C233.277677,281.61866 235.626654,281 238.256,281 C242.045352,281 245.041989,282.217988 247.246,284.654 C249.450011,287.090012 250.552,290.376646 250.552,294.514 C250.552,296.060674 249.856007,296.834 248.464,296.834 L230.542,296.834 C230.928669,302.827363 233.809306,305.824 239.184,305.824 C240.614674,305.824 241.851995,305.630669 242.896,305.244 C243.940005,304.857331 245.041994,304.35467 246.202,303.736 C246.318001,303.658666 246.636997,303.494335 247.159,303.243 C247.681003,302.991665 248.115998,302.866 248.464,302.866 C249.005336,302.866 249.449998,303.078665 249.798,303.504 Z M232.978,287.438 C231.62466,288.868674 230.812668,290.87932 230.542,293.47 L245.506,293.47 C245.389999,290.840654 244.723006,288.82034 243.505,287.409 C242.286994,285.99766 240.576011,285.292 238.372,285.292 C236.129322,285.292 234.33134,286.007326 232.978,287.438 Z" id="Image-not-Available" fill="#CCCCCC"></path>
                    <g id="Group" stroke-width="1" fill="none" transform="translate(24.000000, 0.000000)">
                        <path d="M194.684605,12.8930202 L183.080887,12.8930202 L171.477169,0 L125.320157,0 L113.716438,12.8930202 L21.9181344,12.8930202 C10.0565558,12.8930202 0.257860404,22.6917156 0.257860404,34.5532942 L0.257860404,147.754012 C0.257860404,159.61559 10.0565558,169.414286 21.9181344,169.414286 L194.942466,169.414286 C206.804044,169.414286 216.60274,159.61559 216.60274,147.754012 L216.60274,34.5532942 C216.344879,22.6917156 206.804044,12.8930202 194.684605,12.8930202 Z M208.609067,147.754012 C208.609067,155.489824 202.420417,161.678474 194.684605,161.678474 L21.9181344,161.678474 C14.1823222,161.678474 7.99367254,155.489824 7.99367254,147.754012 L7.99367254,34.5532942 C7.99367254,26.8174821 14.1823222,20.6288324 21.9181344,20.6288324 L117.326484,20.6288324 L128.930202,7.73581213 L168.124984,7.73581213 L179.728702,20.6288324 L194.684605,20.6288324 C202.420417,20.6288324 208.609067,26.8174821 208.609067,34.5532942 L208.609067,147.754012 Z" id="Shape" fill="#CCCCCC" fill-rule="nonzero"></path>
                        <path d="M108.30137,48.2198956 C83.546771,48.2198956 63.6915199,68.3330072 63.6915199,92.8297456 C63.6915199,117.326484 83.546771,137.439596 108.30137,137.439596 C133.055969,137.439596 152.91122,117.584344 152.91122,92.8297456 C152.91122,68.0751468 133.055969,48.2198956 108.30137,48.2198956 Z M108.30137,129.703783 C87.9303979,129.703783 71.427332,113.200718 71.427332,92.8297456 C71.427332,72.4587736 87.9303979,55.9557078 108.30137,55.9557078 C128.672342,55.9557078 145.175408,72.4587736 145.175408,92.8297456 C145.175408,113.200718 128.672342,129.703783 108.30137,129.703783 Z" id="Shape" fill="#CCCCCC" fill-rule="nonzero"></path>
                        <circle id="Oval" fill="#CCCCCC" fill-rule="nonzero" cx="44.8677104" cy="54.1506849" r="9.54083496"></circle>
                    </g>
                </g>
            </g>
        </g>
    </g>
</svg>